<svg xmlns="http://www.w3.org/2000/svg" version="1.1" xmlns:xlink="http://www.w3.org/1999/xlink" xmlns:svgjs="http://svgjs.com/svgjs" width="100%" height="294"><svg version="1.1" id="SvgjsSvg1000" xmlns="http://www.w3.org/2000/svg" xmlns:xlink="http://www.w3.org/1999/xlink" x="0px" y="0px" width="100%" viewBox="0 0 344 294" enable-background="new 0 0 344 294" xml:space="preserve">
<path class="ink" opacity="1.000000" stroke="none" d="
M310.955505,64.986832 
	C307.273529,82.949638 298.474548,97.946342 287.618744,111.826820 
	C277.876709,124.283211 267.766998,136.451523 257.866486,148.784683 
	C252.055450,156.023560 246.522171,163.497330 240.448364,170.505249 
	C238.880325,172.314438 235.751923,173.660812 233.327911,173.680283 
	C224.174133,173.753830 215.006485,173.341858 205.862335,172.801926 
	C201.871567,172.566269 199.144379,173.735992 197.014725,178.915710 
	C201.280106,178.915710 204.950027,178.841553 208.615570,178.936600 
	C212.278305,179.031555 216.082672,178.754776 219.542221,179.688538 
	C221.621933,180.249878 223.161118,182.813889 224.943207,184.477890 
	C223.228302,186.241440 221.740265,188.370209 219.712326,189.629791 
	C218.520401,190.370148 216.468460,189.774246 214.806717,189.701599 
	C206.984726,189.359634 199.164627,188.797089 191.342163,188.768372 
	C189.398636,188.761230 186.899765,189.964081 185.593155,191.440155 
	C178.350586,199.622009 171.391235,208.054855 164.348877,216.413498 
	C162.414322,218.709610 160.268814,219.856918 157.451752,217.877258 
	C154.548874,215.837280 154.320740,213.062256 156.180496,210.465836 
	C159.859131,205.330063 163.694443,200.282303 167.786118,195.471268 
	C178.862000,182.448090 190.447083,169.844406 201.208633,156.570419 
	C220.520782,132.749588 240.986252,109.999390 263.835449,89.573906 
	C276.334717,78.400513 290.007751,68.539452 303.171814,58.112293 
	C303.944702,57.500092 304.847992,56.914585 305.782379,56.675636 
	C307.280853,56.292419 309.359039,55.523380 310.262909,56.185677 
	C311.239716,56.901432 311.333832,59.057091 311.468231,60.614437 
	C311.580292,61.912792 311.194000,63.254173 310.955505,64.986832 
z"></path>
<path class="ink" opacity="1.000000" stroke="none" d="
M131.012558,270.985840 
	C116.400322,270.980133 111.548935,274.016418 104.034088,252.592834 
	C97.653549,234.402924 91.448288,216.149933 85.376595,197.854797 
	C84.323128,194.680542 83.044701,193.228149 79.503555,193.384476 
	C73.019196,193.670731 66.512085,193.532837 60.016315,193.440765 
	C54.827381,193.367218 53.128464,191.690689 53.062031,186.487381 
	C52.965336,178.913956 53.683144,171.480774 58.261169,165.036057 
	C61.128056,161.000168 64.935066,158.694977 70.054787,158.700226 
	C96.709274,158.727509 123.364311,158.609589 150.018051,158.750427 
	C159.505219,158.800537 169.585052,168.128113 169.489853,177.556931 
	C169.456650,180.844986 165.770294,184.096161 162.997894,188.585907 
	C161.287933,183.997086 160.137772,180.820969 158.923203,177.669662 
	C156.334366,170.952713 153.668976,169.078842 146.665329,169.074890 
	C126.872459,169.063751 107.079575,169.070999 86.569633,169.070999 
	C89.762039,178.515366 92.754677,187.450256 95.801880,196.366516 
	C102.141487,214.916550 108.507477,233.457565 114.873901,251.998413 
	C115.197075,252.939560 115.598648,253.856857 116.011078,254.763733 
	C117.314224,257.629120 118.286667,260.988159 122.399254,260.682709 
	C126.539436,260.375244 128.980362,257.848175 130.215164,254.017059 
	C130.317337,253.700043 130.451447,253.392288 130.538208,253.071442 
	C133.427887,242.384262 133.427322,242.384094 144.447556,242.384094 
	C157.088928,242.384094 169.730301,242.384109 183.282532,242.384109 
	C181.370728,237.623886 180.190674,233.143066 177.909958,229.318634 
	C172.689896,220.565399 172.909607,218.672882 182.563309,210.225525 
	C185.622665,218.647781 188.669052,226.816956 191.554443,235.042603 
	C194.120056,242.356598 194.041290,242.383377 201.834793,242.384430 
	C207.165710,242.385147 212.498947,242.291763 217.826828,242.420258 
	C222.487610,242.532654 224.785110,244.800446 224.462158,249.232803 
	C223.561813,261.589691 216.909515,271.338013 202.475189,271.093201 
	C178.826218,270.692078 155.165466,270.985413 131.012558,270.985840 
M200.310394,260.760437 
	C209.803146,260.723389 212.071198,259.325165 212.590439,253.126190 
	C188.840408,253.126190 165.096466,253.126190 141.296326,253.126190 
	C140.566864,255.602768 139.886673,257.912079 139.047806,260.760132 
	C159.520142,260.760132 179.437241,260.760132 200.310394,260.760437 
M77.859680,175.756989 
	C76.409691,171.781204 74.372627,168.399994 69.378716,169.170517 
	C65.798058,169.722992 63.528820,175.697220 64.027237,182.819748 
	C69.232597,182.819748 74.450630,182.819748 80.283165,182.819748 
	C79.468994,180.473373 78.779739,178.487000 77.859680,175.756989 
z"></path>
<path class="ink" opacity="1.000000" stroke="none" d="
M277.052612,241.640869 
	C282.464783,243.722641 284.522461,247.365067 284.197845,252.728699 
	C283.946655,256.879272 284.092224,261.058014 284.160950,265.222595 
	C284.225830,269.151611 282.258575,271.224792 278.458618,271.248535 
	C265.462280,271.329681 252.464645,271.331726 239.468475,271.235168 
	C235.959091,271.209106 233.908371,269.292938 233.883804,265.596222 
	C233.872726,263.929993 233.962906,262.257782 233.853256,260.598419 
	C232.983810,247.440475 235.818512,243.920151 249.920990,240.314453 
	C250.057220,238.479813 250.201401,236.538345 250.390503,233.991714 
	C253.265259,233.991714 256.039673,233.991714 258.814117,233.991714 
	C261.617126,233.991714 264.420166,233.991714 267.567810,233.991714 
	C267.567810,243.645096 267.567810,252.922180 267.567810,262.702118 
	C269.436157,262.824890 270.986572,262.926727 273.308929,263.079315 
	C273.308929,256.551392 273.380676,250.298569 273.275238,244.048721 
	C273.230194,241.379730 273.930115,240.170303 277.052612,241.640869 
z"></path>
<path class="ink" opacity="1.000000" stroke="none" d="
M109.237213,188.053909 
	C121.008888,188.053787 132.309784,188.053726 143.610672,188.053787 
	C152.564072,188.053848 152.947327,188.416046 154.228027,198.558334 
	C145.410110,198.558334 136.649612,198.558350 127.889114,198.558350 
	C124.066750,198.558350 120.244392,198.558350 116.422028,198.558334 
	C107.013474,198.558319 107.013474,198.558319 104.998810,188.360321 
	C106.277618,188.256363 107.522026,188.155197 109.237213,188.053909 
z"></path>
<path class="ink" opacity="1.000000" stroke="none" d="
M140.615097,218.951965 
	C131.863159,218.951981 123.565750,218.951981 115.170792,218.951981 
	C113.978569,215.588715 112.885559,212.505325 111.501862,208.601944 
	C121.673920,208.601944 131.242477,208.537720 140.806488,208.716324 
	C141.626144,208.731644 142.711517,210.231934 143.158554,211.265167 
	C144.134842,213.521729 144.779587,215.921738 145.699997,218.683960 
	C143.901962,218.788025 142.485794,218.869980 140.615097,218.951965 
z"></path>
<path class="ink" opacity="1.000000" stroke="none" d="
M265.717651,218.280502 
	C266.348022,218.280579 266.514069,218.278641 266.680054,218.280960 
	C270.594147,218.335434 275.144501,218.258896 275.061676,223.591782 
	C274.980682,228.805527 270.486877,228.833832 266.548981,228.841278 
	C261.568481,228.850677 256.587982,228.856339 251.607529,228.840363 
	C245.850555,228.821915 242.709763,226.964844 243.130157,223.443497 
	C243.751770,218.236664 247.858322,218.261124 251.806015,218.276520 
	C256.288391,218.293991 260.770874,218.280502 265.717651,218.280502 
z"></path>
</svg><style>@media (prefers-color-scheme: light) { :root { filter: none; } }
</style></svg>