<?xml version="1.0" standalone="no"?>
<!DOCTYPE svg PUBLIC "-//W3C//DTD SVG 20010904//EN"
 "http://www.w3.org/TR/2001/REC-SVG-20010904/DTD/svg10.dtd">
<svg version="1.0" xmlns="http://www.w3.org/2000/svg"
 width="688.000000pt" height="688.000000pt" viewBox="0 0 688.000000 688.000000"
 preserveAspectRatio="xMidYMid meet">
<metadata>
Created by potrace 1.14, written by Peter Selinger 2001-2017
</metadata>
<g transform="translate(0.000000,688.000000) scale(0.100000,-0.100000)"
fill="#000000" stroke="none">
<path d="M6121 5249 c-18 -6 -38 -14 -45 -20 -6 -5 -51 -41 -101 -80 -49 -38
-97 -76 -105 -82 -8 -7 -33 -26 -55 -42 -21 -17 -46 -36 -55 -43 -8 -7 -73
-59 -145 -114 -108 -84 -274 -220 -321 -263 -211 -191 -498 -474 -654 -645
-52 -57 -111 -120 -130 -141 -19 -21 -55 -61 -80 -90 -25 -28 -57 -65 -72 -81
-15 -16 -42 -47 -60 -69 -18 -23 -41 -51 -52 -62 -15 -18 -236 -285 -307 -372
-29 -34 -213 -250 -219 -255 -3 -3 -34 -39 -70 -80 -35 -41 -67 -77 -70 -80
-3 -3 -32 -36 -65 -75 -33 -38 -64 -75 -70 -81 -66 -71 -185 -218 -264 -324
-22 -30 -47 -64 -56 -74 -53 -69 -12 -160 78 -171 28 -4 38 3 87 54 30 33 84
94 120 137 84 103 238 282 267 313 13 13 23 26 23 30 0 9 69 54 89 59 37 8
302 1 512 -14 l86 -6 51 48 c29 27 52 55 52 64 0 9 -20 34 -44 55 -36 33 -54
42 -110 51 -37 6 -69 7 -72 2 -3 -4 -10 -6 -15 -2 -6 3 -74 6 -152 7 -78 0
-145 2 -149 4 -11 6 33 68 65 93 30 24 61 26 292 15 232 -11 386 -10 425 4 35
11 63 33 111 88 27 31 165 204 209 262 14 18 30 38 35 44 6 7 75 93 155 192
168 209 172 214 185 229 6 6 35 43 65 81 30 39 60 76 68 83 7 8 25 30 40 50
15 20 34 46 44 57 20 25 85 105 101 125 85 107 237 331 237 349 0 5 3 11 8 13
29 13 177 358 207 483 29 122 36 168 32 213 -5 72 -26 84 -106 61z"/>
<path d="M1323 3196 c-23 -6 -48 -17 -55 -23 -6 -7 -16 -13 -20 -13 -36 0
-147 -174 -163 -255 -28 -143 -32 -292 -9 -338 27 -50 56 -56 324 -57 261 -1
264 -1 292 -54 6 -10 59 -163 118 -340 148 -438 161 -478 171 -501 4 -11 11
-31 14 -45 4 -14 13 -38 20 -55 6 -16 17 -48 24 -70 7 -22 16 -49 21 -60 5
-11 19 -49 31 -85 54 -161 132 -280 205 -315 53 -25 201 -38 272 -24 17 4 32
4 32 0 0 -3 44 -5 97 -4 151 4 307 5 318 3 6 -1 15 -1 20 0 13 2 137 2 150 0
6 -1 15 -1 20 0 27 7 245 4 245 -3 0 -5 5 -5 12 -1 9 6 297 10 318 4 4 -1 222
0 335 1 39 0 125 27 169 53 93 54 149 135 185 264 22 81 23 180 2 206 -36 43
-63 47 -309 49 -173 2 -243 6 -260 15 -26 15 -43 50 -100 213 -23 63 -59 166
-82 229 -23 63 -47 130 -53 148 -6 17 -14 32 -18 32 -16 0 -126 -118 -142
-153 -26 -53 -17 -102 35 -195 24 -43 43 -79 44 -82 0 -3 10 -25 21 -50 11
-25 24 -60 28 -78 3 -17 11 -34 16 -37 5 -4 9 -14 9 -24 0 -16 -27 -17 -449
-18 -310 0 -459 -4 -483 -12 -33 -11 -85 -55 -82 -69 1 -4 -2 -17 -7 -30 -5
-12 -11 -33 -13 -45 -15 -73 -48 -144 -80 -170 -50 -42 -133 -52 -168 -20 -23
21 -52 73 -41 73 5 0 3 4 -3 8 -12 8 -37 73 -124 327 -34 99 -75 218 -91 265
-17 47 -32 92 -34 100 -4 19 -35 108 -46 135 -9 21 -103 298 -145 425 -13 41
-28 84 -33 95 -5 11 -36 102 -69 201 l-59 182 646 -2 c624 -1 647 -2 686 -21
22 -11 52 -38 67 -60 25 -37 119 -264 121 -292 1 -19 8 -10 72 78 58 80 60 86
60 144 -1 143 -127 289 -300 348 -42 14 -1705 17 -1762 3z m140 -205 c15 -2
63 -57 76 -86 15 -34 61 -165 61 -175 0 -3 -71 -6 -157 -5 l-158 0 -1 50 c-2
96 28 180 74 207 20 13 62 16 105 9z m2787 -1694 c0 -29 -31 -87 -54 -102 -12
-7 -41 -17 -66 -21 -25 -4 -339 -8 -698 -8 -576 -1 -652 1 -646 14 3 8 12 39
20 69 8 29 16 57 19 60 2 4 324 7 714 7 693 0 711 0 711 -19z"/>
<path d="M2105 2592 c3 -15 8 -40 11 -57 9 -50 37 -99 65 -112 20 -10 137 -13
456 -14 237 -1 435 1 440 4 11 7 -10 126 -28 159 -24 46 -51 48 -514 47 l-436
0 6 -27z"/>
<path d="M2235 2192 c4 -9 14 -37 22 -62 32 -99 53 -139 68 -134 22 9 175 9
175 1 0 -5 4 -6 8 -3 5 3 42 5 83 6 41 0 103 0 139 1 36 1 91 1 123 2 l58 0
-7 31 c-11 53 -53 148 -70 161 -12 9 -97 12 -311 13 -274 1 -294 0 -288 -16z"/>
<path d="M4950 2009 c-46 -10 -81 -48 -85 -94 -5 -46 16 -79 58 -96 39 -15
454 -21 503 -7 49 13 75 52 72 106 -2 40 -25 80 -47 83 -3 0 -15 3 -26 5 -32
8 -438 10 -475 3z"/>
<path d="M5009 1693 c-1 -5 -3 -28 -5 -53 -1 -25 -3 -50 -3 -56 -1 -6 -14 -14
-30 -17 -54 -11 -186 -67 -212 -91 -68 -59 -86 -126 -84 -296 3 -160 8 -181
48 -205 30 -19 55 -20 452 -21 405 -1 421 0 457 19 47 26 51 42 52 247 2 212
-14 258 -109 311 -55 30 -94 34 -103 9 -4 -10 -7 -109 -7 -219 l1 -201 -51 4
c-27 2 -53 4 -57 5 -5 1 -8 83 -7 184 0 100 0 228 0 285 l-1 102 -170 0 c-93
0 -171 -3 -171 -7z"/>
</g>
</svg>
