<svg xmlns="http://www.w3.org/2000/svg" xml:space="preserve" viewBox="0 0 590 284">
  <path d="M199.18 131.044c2.615-5.543 5.14-11.13 7.893-16.603.958-1.906 2.376-3.615 3.765-5.261 3.712-4.397 8.188-7.987 14.221-6.078 6.044 1.911 7.3 7.637 7.188 13.062-.457 22.153-7.456 41.402-25.718 55.372-1.09.834-2.582 2.178-2.565 3.264.22 14.448.663 28.893 1.118 43.337.017.515.723 1.01 1.882 2.527.935-3.096 2.259-5.358 2.174-7.566-.352-9.127-.719-18.288-1.855-27.339-1.424-11.344 1.378-15.2 12.65-15.675 2.642-.11 5.28-.296 7.958-.45 1.052-8.252 1.338-16.329 3.24-24.006a252.51 252.51 0 0 1 10.112-31.667c1.513-3.845 5.242-7.401 8.843-9.715 6.353-4.08 13.188-.939 15.127 6.412 2.336 8.855.478 17.44-3.986 25.015-4.79 8.125-10.448 15.805-16.356 23.177-3.038 3.791-4.834 7.35-3.673 12.932 2.059-3.512 3.693-6.596 5.604-9.496 3.542-5.376 7.687-10.068 14.428-11.493 5.605-1.185 9.134 1.24 8.621 6.918-.596 6.6-2.385 13.085-3.195 19.676-.355 2.899.431 5.937.699 8.912 2.79-1.323 6.134-2.086 8.208-4.135 1.856-1.832 3.126-5.04 3.258-7.711 1.014-20.556 2.898-40.948 12.544-59.576 2.18-4.21 5.886-8.17 9.852-10.784 5.718-3.77 12.052-.884 14.445 5.56 3.012 8.111 1.412 16.237-2.508 23.15-5.537 9.765-12.358 18.846-19.135 27.839-2.589 3.434-2.8 6.578-2.42 11.372 2.958-4.734 4.76-8.995 7.77-12.076 3.48-3.561 7.664-6.942 12.196-8.84 5.702-2.389 9.524.919 8.927 7.171-.568 5.942-1.988 11.8-2.957 17.706-.376 2.295-.798 4.63-.75 6.936.079 3.716 2.14 4.962 5.226 3.034 3.365-2.103 6.124-4.362 5.867-9.41-.594-11.625 6.06-21.687 15.515-24.905 7.889-2.685 14.965-.85 18.22 4.725 3.515 6.017 1.575 15.615-4.866 20.132-4.39 3.079-9.58 5.015-15.708 8.118 3.22 1.271 5.75 2.983 8.394 3.178 7.26.535 13.157-2.997 18.291-7.737.91-.839.939-2.705 1.228-4.127 1.36-6.672 2.634-13.362 4.008-20.032.69-3.354 2.891-5.093 6.26-5.48 4.278-.493 6.407 1.364 5.761 5.698-.906 6.082-2.353 12.08-3.33 18.154-.47 2.932-.742 5.985-.475 8.926.316 3.476 2.794 4.9 5.572 2.688 2.246-1.788 5.004-4.625 5.126-7.116.799-16.2 5.444-23.116 20.227-28.632-4.544-13.3-8.989-26.626-13.76-39.834-.525-1.453-2.819-2.938-4.468-3.174-3.43-.489-7.019.157-10.46-.29-1.56-.202-3.89-1.647-4.228-2.954-2.442-9.446 3.692-17.487 13.332-17.598 14.163-.161 28.33-.157 42.495-.103 6.429.025 11.934 4.378 12.67 10.533.234 1.955-1.681 4.167-2.657 6.36-1.049-.604-1.529-.722-1.57-.928-1.74-8.564-7.214-10.628-15.37-10.044-9.406.673-18.9.156-29.224.156 1.95 5.882 3.61 11.003 5.346 16.097 3.81 11.172 7.525 22.38 11.617 33.448.716 1.936 3.084 3.26 4.689 4.867 1.55-1.926 4.095-3.693 4.432-5.81.623-3.916 2.321-4.948 5.953-4.862 7.82.183 15.647.056 23.56.056 1.326-6.41-8.33-12.722.57-19.241 1.741 4.875 3.635 9.468 4.995 14.215 1.072 3.742 2.746 5.72 6.965 5.096 2.61-.385 5.324-.013 7.989-.083 4.04-.107 5.748 1.972 4.524 5.635-1.222 3.653-3.183 7.06-5.213 11.419 2.619 6.011-.95 12.832-1.764 19.814-.403 3.456-1.399 6.876-1.482 10.328-.082 3.341 2.125 4.535 5.044 2.868 3.495-1.997 6.25-4.255 6.005-9.291-.465-9.515 3.454-17.395 11.753-23.602-3.731-.814-8.355 1.217-8.641-4.697-.406-8.405.708-10.792 6.76-13.17 1.591-.626 2.79-2.249 5.083-4.184h7.96v16.564c5.392.864 3.517-2.924 3.739-4.944.268-2.44.064-4.932.064-7.626 4.23.698 6.517 2.632 6.244 6.71-.23 3.419-.727 6.82-.974 10.238-.06.833.218 1.81.647 2.54 5.293 9.001 3.164 18.23-5.856 23.51-3.822 2.237-8.1 3.695-12.579 5.689 3.096 4.299 7.694 5.343 11.829 3.567 5.82-2.498 11.036-6.395 16.535-9.653 1.471-.872 3.03-1.598 4.548-2.391.648 1.746 2.096 3.665 1.764 5.2-.564 2.602-1.725 5.477-3.55 7.339-12.172 12.41-27.19 13.334-41.21 3.244-4.532 2.234-8.607 5.012-13.11 6.299-9.168 2.62-14.722-2.007-14.288-11.55.203-4.463 1.297-8.88 1.876-13.333.267-2.052.266-4.14.386-6.21l-1.287-.669c-1.65 2.1-3.786 3.978-4.857 6.34-2.737 6.037-5.109 12.248-7.407 18.47-1.208 3.272-1.643 7.688-6.109 7.212-2.85-.304-5.454-2.92-8.344-4.602-5.365 1.441-11.719 3.865-18.276 4.713-7.021.908-13.428-1.735-17.892-6.626-4.894 2.344-9.269 5.286-14.082 6.52-5.5 1.411-9.92-1.58-12.71-6.782-13.133 8.428-25.96 10.854-38.581-.27-3.377 2.029-6.668 4.758-10.452 6.14-11.386 4.156-18.125-1.403-16.63-13.397.473-3.79 1.398-7.523 1.989-11.302.295-1.89.306-3.823.445-5.736l-1.485-.77c-1.967 2.638-4.385 5.056-5.8 7.963-2.241 4.61-3.813 9.545-5.666 14.343-.778 2.012-1.006 4.67-2.451 5.89-2.25 1.902-5.271 3.674-8.071 3.854-1.714.11-3.626-2.858-5.202-4.229-4.087 1.377-8.762 3.755-13.666 4.408-6.698.892-10.57-2.702-10.66-9.464-.067-5.102 1.052-10.218 1.616-15.331.244-2.218.42-4.444.627-6.666l-1.33-.695c-1.606 1.93-3.662 3.64-4.727 5.831-2.46 5.064-4.47 10.348-6.598 15.57-.814 1.997-1.26 4.16-2.205 6.086-1.849 3.765-5.322 5.148-9.166 4.642-3.974-.524-3.769-4.139-3.918-7.09-.16-3.131-.036-6.277-.036-9.36h-12.836c.618 8.041 1.591 15.78 1.672 23.53.053 5.078-.772 10.268-1.968 15.224-1.044 4.324-3.792 7.873-8.538 8.912-6.061 1.326-11.095-1.528-12.277-8.667-1.838-11.102-2.455-22.411-3.457-33.645-.263-2.95-.04-5.944-.04-9.145h-6.939c.575 7.017 1.577 13.757 1.557 20.494-.022 7.259-.519 14.597-1.738 21.742-.765 4.483-3.79 8.238-8.799 9.24-6.044 1.207-10.618-1.73-12.251-8.86-1.626-7.098-2.256-14.425-3.277-21.658-.203-1.44-.2-2.908-.261-3.88-4.16 1.093-8.362 3.4-12.138 2.839-3.525-.525-6.596-4.096-10.023-6.433-8.374 9.092-15.303 9.693-23.579 1.156-12.588 4.606-25.48 7.232-39.022 4.991-17.545-2.903-28.745-14.107-29.631-31.804-1.005-20.074 4.776-37.632 23.175-48.69 8.196-4.925 17.249-6.005 26.518-3.867 14.635 3.377 17.054 19.713 12.228 29.232-1.63 3.215-4.635 4.721-8.434 3.456-3.876-1.291-4.31-4.17-3.558-7.638.246-1.135.406-2.3.491-3.458.59-8.013-3.377-11.948-11.395-10.98-8.003.968-13.801 5.498-17.97 12.172-6.43 10.29-7.63 21.597-5.368 33.206 1.872 9.615 9.937 15.812 21.005 16.926 9.495.957 18.575-1.047 27.285-4.64 1.181-.486 2.13-2.614 2.38-4.116 2.291-13.801 11.421-24.112 23.73-26.528 2.7-.53 5.195-.926 6.868 2.272.447.853 2.48 1.156 3.807 1.218 5.432.252 6.438 1.261 5.607 6.724-1.025 6.743-2.388 13.437-3.284 20.195-.233 1.759.732 3.676 1.147 5.52 1.92-.606 4.023-.9 5.728-1.882 4.43-2.554 4.927-6.952 5.222-11.595 1.07-16.855 3.832-33.444 10.393-49.08 2.53-6.027 6.266-11.664 10.145-16.974 2.964-4.056 7.827-5.459 12.583-3.57 4.47 1.774 6.079 6.16 6.082 10.66.003 4.963-.724 9.925-1.398 15.57-3.904 14.968-12.022 26.563-21.847 37.23-1.756 1.907-3.407 4.81-3.427 7.268-.11 13.472.258 26.95.592 40.422.044 1.79.825 3.563 1.266 5.344l1.698.091c.69-2.568 2.022-5.153 1.952-7.7-.245-8.97-.45-17.995-1.636-26.87-1.9-14.23.329-17.436 14.487-18.324.29-.019.566-.288.375-.185l8.138-35.739m209.804 51.529-2.188.842c.036.353-.003.556.079.678 3.03 4.508 7.534 4.553 11.943 3.294 5.987-1.71 12.868-3.317 14.666-10.237 2.02-7.776 2.616-15.92 3.857-24.073h-13.033c6.328 11.712 3.5 21.005-8.085 26.72-2.072 1.021-4.344 1.637-7.24 2.776m-202.698-27.937-.893 6.023c2.937-2.048 5.3-4.38 7.03-7.113 6.34-10.017 9.663-21.088 10.275-32.879.133-2.556-1.197-5.189-1.854-7.786-1.792 2.114-4.507 3.957-5.218 6.387-3.346 11.435-6.142 23.03-9.34 35.368m-71.466 25.425 4.323-20.828c-2.773 1.07-4.743 1.43-6.228 2.477-5.453 3.846-8.112 9.453-9.13 15.885-.623 3.935-1.713 8.73 3.547 9.924 4.506 1.021 5.695-3.467 7.488-7.458m47.191-58.46-8.22 32.652c9.782-4.308 19.098-34.035 12.99-42.317-1.659 3.28-3.088 6.103-4.77 9.665m116.198 22.063c1.385-2.461 3.29-4.773 4.05-7.414 1.861-6.456 3.315-13.04 4.616-19.634.214-1.087-1.173-2.49-1.82-3.747-1.219.908-2.97 1.56-3.554 2.773-1.577 3.274-3.012 6.702-3.861 10.224-1.852 7.689-3.306 15.474-4.923 23.22l1.301.353a725.3 725.3 0 0 0 4.191-5.775m-53.823-7.716-2.003 12.124c.824-.066 1.545.087 1.746-.17 7.12-9.044 12.576-18.788 12.044-30.787-.063-1.438-1.268-2.824-1.943-4.235-1.295 1.074-3.291 1.904-3.765 3.264-2.18 6.25-3.935 12.647-6.079 19.804m188.67 6.006-4.314 4.835c14.23 0 26.834.129 39.428-.149 1.746-.038 3.448-2.083 5.171-3.2l-.666-1.496c-12.906 0-25.813 0-39.619.01m63.148 33.011c3.354-2.457 7.369-4.385 9.879-7.52 2.58-3.221.261-7.196-3.331-7.106-5.263.132-10.066 9.758-6.548 14.626m-145.292-5.601c1.522-2.887 3.096-6.32-.42-8.319-3.947-2.245-6.713.94-8.262 4.113-1.43 2.933-1.876 6.346-2.755 9.548l1.508 1.085c3.156-1.957 6.312-3.913 9.93-6.427m53.522 4.049c.462.538 1.266 1.59 1.335 1.542 3.602-2.41 7.448-4.6 10.502-7.595.921-.904-.375-4.069-.656-6.198-2.126.284-5.322-.191-6.17 1.002-2.205 3.102-3.38 6.938-5.01 11.249m53.207-20.615h-7.681l-4.075 16.21c1.115-.081 1.593.023 1.725-.146a1319.374 1319.374 0 0 0 11.796-15.2c.013-.017-.643-.545-1.765-.864M388.7 92.795l-4.522 7.962h10.563l1.108-1.212c-2.12-2.3-4.239-4.6-7.15-6.75z" class="logo"/>
  <path d="M472.675 98.44c2.964.587 7.217-.938 7.109 3.201-.12 4.536-4.566 3.433-7.078 2.835-11.173-2.66-18.717 1.755-24.14 11.226-1.063 1.856-2.439 3.655-4.058 5.02-.851.719-2.98 1.025-3.733.458-.816-.615-.902-2.462-.91-3.774-.003-.687.794-1.419 1.314-2.062 20.074-24.857 40.158-49.73 63.963-71.204 6.763-6.1 14.372-11.266 21.654-16.781.963-.73 2.285-.984 3.965-1.674 1.066 6.887-.918 12.712-3.969 17.638-6.192 9.996-13.033 19.621-20.065 29.058-5.26 7.058-11.11 13.696-16.996 20.252-1.306 1.455-3.838 2.405-5.859 2.503-4.974.243-9.981-.276-14.97-.205-1.668.024-3.323.91-4.983 1.401l.247 1.718 8.51.39zm-85.697 30.187c5.155 2.224 5.311 6.072 3.81 10.144-1.437 3.896-7.393 6.054-11.984 4.71-3.985-1.167-5.53-4.098-5.254-7.96.285-4.003 4.226-7.328 8.622-7.474 1.473-.05 2.958.274 4.806.58zm33.054-24.676c4.464 0 8.459.268 12.4-.072 4.432-.383 6.53 1.192 6.186 6.108-8.248 0-16.516.257-24.742-.216-1.648-.095-3.136-2.971-4.699-4.565l.986-1.255h9.87zm85.378 23.976c-3.905 0-7.411.286-10.823-.157-1.328-.173-2.442-1.99-3.654-3.059 1.245-.983 2.408-2.653 3.752-2.814a45.026 45.026 0 0 1 10.375-.027c1.624.186 3.103 1.649 4.648 2.533-1.287 1.173-2.573 2.346-4.297 3.524zm-85.268-12.093c2.624 0 4.803.224 6.92-.046 4.553-.581 6.338 1.49 6.159 6.222-5.12 0-10.261.419-15.264-.231-1.712-.222-3.075-3.124-4.598-4.801l.915-1.144h5.868z" class="logo"/>
</svg>