<svg version="1.1" id="Layer_1" xmlns="http://www.w3.org/2000/svg" xmlns:xlink="http://www.w3.org/1999/xlink" x="0px" y="0px"
	 width="100%" viewBox="0 0 590 284" enable-background="new 0 0 590 284" xml:space="preserve">
<link xmlns="http://www.w3.org/1999/xhtml" rel="stylesheet" href="svg.css" type="text/css"/>
<path class="logo" opacity="1.000000" stroke="none" 
	d="
M199.179810,131.043961 
	C201.794510,125.501335 204.319595,119.913628 207.072708,114.440620 
	C208.031067,112.535484 209.448593,110.825661 210.837936,109.179863 
	C214.549911,104.782715 219.025955,101.193375 225.059265,103.101807 
	C231.102615,105.013428 232.358765,110.739281 232.246857,116.164276 
	C231.789932,138.317093 224.790955,157.565628 206.529160,171.536484 
	C205.439484,172.370148 203.947189,173.714020 203.963684,174.800400 
	C204.183060,189.248444 204.627319,203.693237 205.082474,218.136734 
	C205.098724,218.652374 205.805237,219.146286 206.964127,220.664291 
	C207.899414,217.567764 209.222870,215.305527 209.137817,213.097549 
	C208.786270,203.971481 208.419357,194.810257 207.282913,185.759262 
	C205.858536,174.415192 208.660797,170.558899 219.933777,170.084381 
	C222.574707,169.973221 225.212509,169.787720 227.890961,169.634171 
	C228.942917,161.382172 229.229248,153.305023 231.130447,145.627808 
	C233.790894,134.884628 237.192459,124.257568 241.243286,113.960999 
	C242.756119,110.115601 246.484573,106.559578 250.085831,104.246368 
	C256.439301,100.165321 263.273804,103.306984 265.213196,110.658157 
	C267.549438,119.513405 265.690918,128.098190 261.226776,135.672546 
	C256.437775,143.798126 250.778732,151.478271 244.871368,158.849518 
	C241.832825,162.641052 240.036758,166.200150 241.198349,171.781967 
	C243.256836,168.269928 244.890579,165.186417 246.801849,162.285767 
	C250.343735,156.910400 254.489166,152.217758 261.229889,150.793030 
	C266.835419,149.608276 270.363953,152.032654 269.851044,157.710968 
	C269.254883,164.310959 267.465759,170.795776 266.656464,177.387329 
	C266.300659,180.285538 267.086975,183.323975 267.354736,186.298737 
	C270.145660,184.976074 273.488678,184.212555 275.563141,182.164246 
	C277.418854,180.331909 278.688904,177.123062 278.820709,174.452606 
	C279.835419,153.896896 281.718628,133.505432 291.365387,114.877251 
	C293.545258,110.667824 297.250763,106.707436 301.216766,104.092812 
	C306.935181,100.322906 313.269196,103.209053 315.662079,109.652718 
	C318.674377,117.764336 317.074280,125.890083 313.154053,132.803345 
	C307.617126,142.567627 300.795807,151.648834 294.018829,160.641678 
	C291.430389,164.076492 291.219696,167.220367 291.599640,172.013809 
	C294.557159,167.280151 296.359558,163.019241 299.369690,159.938309 
	C302.849365,156.376770 307.033081,152.995758 311.565002,151.097672 
	C317.267395,148.709381 321.088531,152.016602 320.491638,158.269089 
	C319.924469,164.210617 318.504364,170.068192 317.535339,175.975143 
	C317.158844,178.270065 316.736847,180.604538 316.785553,182.911484 
	C316.863983,186.627090 318.924408,187.873413 322.010712,185.945099 
	C325.376343,183.842285 328.135162,181.582611 327.877533,176.535339 
	C327.284149,164.910049 333.938751,154.848267 343.393036,151.630127 
	C351.281708,148.944885 358.357819,150.779755 361.613739,156.354828 
	C365.128082,162.372437 363.188293,171.969940 356.747009,176.487366 
	C352.357697,179.565689 347.167267,181.501663 341.038940,184.604706 
	C344.258453,185.876205 346.789734,187.588425 349.432678,187.783005 
	C356.693756,188.317520 362.590363,184.785538 367.724487,180.045929 
	C368.633148,179.207108 368.662811,177.340973 368.952362,175.919495 
	C370.311401,169.246765 371.585876,162.556717 372.959900,155.887161 
	C373.650909,152.532867 375.851105,150.794159 379.220490,150.406311 
	C383.497589,149.913956 385.627228,151.771011 384.981201,156.105118 
	C384.074768,162.186508 382.627563,168.185883 381.651703,174.258896 
	C381.180481,177.191452 380.909302,180.243591 381.176147,183.184555 
	C381.491577,186.661316 383.970428,188.084625 386.747711,185.873154 
	C388.993958,184.084564 391.751740,181.247726 391.874481,178.757217 
	C392.672791,162.556335 397.318420,155.640717 412.100677,150.125366 
	C407.557465,136.825623 403.112305,123.499153 398.340881,110.290527 
	C397.816101,108.837730 395.522125,107.352592 393.872559,107.117378 
	C390.442352,106.628242 386.854187,107.274231 383.412140,106.827789 
	C381.852081,106.625450 379.523193,105.179672 379.185364,103.873291 
	C376.742584,94.426979 382.876678,86.385506 392.516754,86.275436 
	C406.680420,86.113716 420.846893,86.117554 435.011688,86.172142 
	C441.440521,86.196915 446.946106,90.549637 447.682343,96.704651 
	C447.916260,98.659981 446.000671,100.872444 445.025269,103.064812 
	C443.976227,102.460579 443.496429,102.343361 443.454529,102.137169 
	C441.714600,93.572937 436.240570,91.509071 428.085876,92.092857 
	C418.678528,92.766312 409.185944,92.249405 398.860565,92.249405 
	C400.811188,98.130898 402.470215,103.251968 404.207306,108.346436 
	C408.016663,119.518387 411.732117,130.726181 415.824432,141.794189 
	C416.540039,143.729553 418.908020,145.053970 420.512848,146.660538 
	C422.062347,144.735199 424.608246,142.968430 424.945343,140.850143 
	C425.568420,136.935226 427.266205,135.903336 430.897644,135.988632 
	C438.717529,136.172287 446.544739,136.045044 454.458923,136.045044 
	C455.784271,129.635864 446.128937,123.322784 455.028320,116.803802 
	C456.769043,121.679153 458.663025,126.272331 460.022614,131.018600 
	C461.094604,134.760895 462.769196,136.738770 466.988129,136.115402 
	C469.597565,135.729828 472.312103,136.102234 474.976715,136.031891 
	C479.017090,135.925232 480.725403,138.003784 479.500763,141.666687 
	C478.279205,145.320328 476.318176,148.726746 474.288300,153.085526 
	C476.906586,159.096954 473.337952,165.917542 472.523651,172.900024 
	C472.120544,176.356476 471.125397,179.776260 471.041534,183.228287 
	C470.960388,186.569168 473.166626,187.763458 476.085602,186.095947 
	C479.580780,184.099304 482.336639,181.840683 482.090668,176.804535 
	C481.625916,167.289886 485.544769,159.409607 493.844421,153.202667 
	C490.112885,152.389252 485.488770,154.419800 485.202881,148.505768 
	C484.796600,140.101242 485.911499,137.714249 491.962708,135.335846 
	C493.554260,134.710297 494.753784,133.087311 497.045532,131.152069 
	C498.601593,131.152069 501.552094,131.152069 505.005615,131.152069 
	C505.005615,136.737167 505.005615,142.159027 505.005615,147.715927 
	C510.398132,148.580399 508.523041,144.792007 508.744995,142.771759 
	C509.013092,140.331894 508.808563,137.840088 508.808563,135.145935 
	C513.038452,135.843994 515.326355,137.777527 515.053040,141.855270 
	C514.823792,145.274551 514.325562,148.675491 514.078857,152.094101 
	C514.018677,152.927109 514.296509,153.904312 514.725952,154.634628 
	C520.018677,163.635391 517.889709,172.863922 508.870087,178.143982 
	C505.048340,180.381180 500.770264,181.838928 496.291138,183.832764 
	C499.386688,188.131683 503.985260,189.175812 508.119965,187.400436 
	C513.939636,184.901596 519.156372,181.005371 524.654663,177.746857 
	C526.126343,176.874710 527.684570,176.148743 529.203064,175.355682 
	C529.850586,177.101776 531.298889,179.021332 530.966614,180.555206 
	C530.402893,183.157639 529.242493,186.032974 527.416443,187.894745 
	C515.244873,200.304443 500.227783,201.229401 486.206848,191.139252 
	C481.674957,193.372559 477.599640,196.151047 473.097900,197.437805 
	C463.929291,200.058517 458.375153,195.431152 458.809204,185.888138 
	C459.012238,181.425125 460.106323,177.007355 460.684998,172.554581 
	C460.951691,170.502502 460.950531,168.415634 461.070831,166.344528 
	C460.641754,166.121689 460.212677,165.898865 459.783600,165.676025 
	C458.133087,167.775131 455.997681,169.654434 454.926880,172.016357 
	C452.190247,178.052750 449.818390,184.263763 447.520416,190.486084 
	C446.312103,193.757919 445.876587,198.173553 441.411407,197.697601 
	C438.561035,197.393753 435.957153,194.778015 433.066681,193.096375 
	C427.701813,194.537170 421.348114,196.961243 414.790558,197.809402 
	C407.769775,198.717484 401.362793,196.074310 396.899323,191.182999 
	C392.005432,193.526505 387.630127,196.468582 382.816833,197.703278 
	C377.316498,199.114243 372.897858,196.122635 370.106964,190.921295 
	C356.973602,199.349228 344.146149,201.775391 331.525787,190.650543 
	C328.148651,192.680023 324.857605,195.409393 321.074371,196.790482 
	C309.687988,200.947098 302.948669,195.388199 304.444427,183.393967 
	C304.917206,179.603134 305.841522,175.870651 306.432709,172.091705 
	C306.728210,170.202744 306.738892,168.269226 306.878418,166.355865 
	C306.383362,166.099274 305.888336,165.842682 305.393280,165.586090 
	C303.425751,168.223740 301.007904,170.642349 299.593933,173.549240 
	C297.351898,178.158508 295.780304,183.093979 293.926727,187.892090 
	C293.149445,189.904175 292.920563,192.561920 291.476013,193.782288 
	C289.225250,195.683746 286.204895,197.456116 283.404877,197.636002 
	C281.690918,197.746124 279.779175,194.778061 278.203491,193.407440 
	C274.115875,194.784256 269.441284,197.161804 264.536957,197.815063 
	C257.839264,198.707230 253.967514,195.113312 253.877716,188.351425 
	C253.809952,183.249176 254.929260,178.132812 255.492889,173.019730 
	C255.737411,170.801605 255.913284,168.575928 256.120331,166.353683 
	C255.676910,166.122177 255.233475,165.890656 254.790054,165.659149 
	C253.184265,167.588211 251.128342,169.298584 250.063416,171.490433 
	C247.603180,176.554062 245.592072,181.838348 243.464600,187.059952 
	C242.650711,189.057480 242.205002,191.220779 241.259857,193.145691 
	C239.411209,196.910797 235.937683,198.294296 232.093643,197.787842 
	C228.120087,197.264313 228.325287,193.649323 228.175537,190.698380 
	C228.016647,187.566788 228.139847,184.420883 228.139847,181.337372 
	C223.619568,181.337372 219.535156,181.337372 215.304428,181.337372 
	C215.921814,189.379044 216.895096,197.118759 216.976242,204.867798 
	C217.029419,209.945602 216.204147,215.136429 215.008011,220.092163 
	C213.964417,224.415878 211.216278,227.965103 206.470306,229.003815 
	C200.408630,230.330444 195.375015,227.476212 194.192917,220.337219 
	C192.354538,209.234818 191.737991,197.925598 190.735779,186.692261 
	C190.472549,183.741882 190.696106,180.748062 190.696106,177.547058 
	C188.445496,177.547058 186.383118,177.547058 183.756989,177.547058 
	C184.331757,184.563812 185.333786,191.303879 185.313705,198.040894 
	C185.292084,205.299850 184.795410,212.638290 183.575745,219.783264 
	C182.810516,224.266251 179.786804,228.021240 174.777252,229.022491 
	C168.733215,230.230484 164.159363,227.293259 162.525909,220.162430 
	C160.900101,213.065125 160.270264,205.737991 159.249252,198.505219 
	C159.046021,197.065460 159.048981,195.596573 158.987518,194.625702 
	C154.828369,195.718262 150.625687,198.025345 146.849670,197.463715 
	C143.325226,196.939468 140.254059,193.367767 136.826843,191.030685 
	C128.453461,200.122665 121.523994,200.724091 113.248108,192.186508 
	C100.659515,196.793137 87.768234,199.418823 74.225632,197.178192 
	C56.680969,194.275436 45.480648,183.071365 44.594864,165.373520 
	C43.590168,145.299759 49.371071,127.742447 67.770004,116.684326 
	C75.965599,111.758606 85.018768,110.678619 94.287788,112.817245 
	C108.923477,116.194115 111.342140,132.530106 106.516174,142.049332 
	C104.886406,145.264038 101.881142,146.770493 98.081520,145.504684 
	C94.206009,144.213623 93.771210,141.334625 94.523575,137.867111 
	C94.769936,136.731659 94.930031,135.567871 95.015335,134.408646 
	C95.604927,126.396149 91.637772,122.460754 83.619980,123.429909 
	C75.616806,124.397285 69.818810,128.927475 65.649139,135.600525 
	C59.219208,145.890884 58.020447,157.198196 60.281597,168.806808 
	C62.154430,178.421814 70.218643,184.618515 81.287003,185.733215 
	C90.782410,186.689514 99.862114,184.685577 108.572479,181.093719 
	C109.753418,180.606720 110.701721,178.479202 110.951126,176.977341 
	C113.242989,163.176025 122.373444,152.865189 134.681961,150.449219 
	C137.382172,149.919205 139.877243,149.523346 141.550461,152.721436 
	C141.996536,153.574036 144.029709,153.876862 145.357178,153.938644 
	C150.789383,154.191376 151.794525,155.200409 150.964233,160.662811 
	C149.939316,167.405762 148.575638,174.100037 147.680313,180.857986 
	C147.447327,182.616699 148.412064,184.534073 148.826675,186.378571 
	C150.747772,185.771500 152.850098,185.478806 154.554672,184.496140 
	C158.984650,181.942291 159.481949,177.543991 159.776627,172.900574 
	C160.846191,156.046097 163.609421,139.456741 170.170059,123.821754 
	C172.699554,117.793579 176.436432,112.156967 180.315079,106.847351 
	C183.278580,102.790535 188.142410,101.388374 192.897888,103.276550 
	C197.367172,105.051086 198.976822,109.436546 198.979858,113.937401 
	C198.983200,118.899559 198.256485,123.862198 197.582306,129.507202 
	C193.677917,144.474701 185.560349,156.069595 175.735336,166.736404 
	C173.978622,168.643646 172.327545,171.547882 172.307526,174.005478 
	C172.197693,187.477310 172.565903,200.954544 172.899521,214.426712 
	C172.943863,216.217590 173.725479,217.990219 174.165649,219.771301 
	C174.731766,219.801575 175.297897,219.831863 175.864014,219.862152 
	C176.553467,217.294464 177.886017,214.709152 177.816254,212.162247 
	C177.570618,203.192825 177.365494,194.166901 176.180161,185.291260 
	C174.279785,171.061462 176.508865,167.855698 190.667252,166.967621 
	C190.957916,166.949387 191.232834,166.679657 191.041763,166.782822 
	C193.809143,154.629654 196.494476,142.836807 199.179810,131.043961 
M408.983856,182.572815 
	C408.239227,182.859283 407.494598,183.145752 406.795776,183.414581 
	C406.832458,183.767761 406.793060,183.971115 406.874969,184.092972 
	C409.905579,188.600784 414.408722,188.646484 418.818024,187.387177 
	C424.804810,185.677307 431.686188,184.069946 433.483612,177.149872 
	C435.503204,169.374466 436.099640,161.229401 437.340851,153.076538 
	C433.456757,153.076538 428.930511,153.076538 424.308167,153.076538 
	C430.635895,164.788696 427.807922,174.082413 416.223389,179.796280 
	C414.151276,180.818329 411.878815,181.434158 408.983856,182.572815 
M206.284988,154.635666 
	C205.987411,156.643433 205.689850,158.651184 205.392273,160.658951 
	C208.328796,158.611008 210.692490,156.279282 212.422241,153.546341 
	C218.762680,143.528809 222.085037,132.457596 222.696884,120.666992 
	C222.829529,118.110634 221.499573,115.478378 220.843292,112.881081 
	C219.051346,114.994720 216.335953,116.838150 215.624878,119.268089 
	C212.278839,130.702591 209.482712,142.298050 206.284988,154.635666 
M134.819077,180.060791 
	C136.183258,173.487839 137.547455,166.914886 139.141876,159.232620 
	C136.369095,160.303391 134.398514,160.662201 132.913773,161.709671 
	C127.461235,165.556366 124.802315,171.163330 123.784172,177.594574 
	C123.161171,181.529770 122.071144,186.325638 127.331001,187.518539 
	C131.836823,188.540421 133.026001,184.052338 134.819077,180.060791 
M182.010452,121.600754 
	C179.316696,132.300812 176.622925,143.000870 173.790146,154.253159 
	C183.571732,149.944717 192.887863,120.218185 186.780441,111.936005 
	C185.121017,115.215698 183.692383,118.039261 182.010452,121.600754 
M298.208344,143.664230 
	C299.592896,141.202560 301.497742,138.890823 302.258911,136.249512 
	C304.119202,129.794174 305.572571,123.210510 306.873657,116.616112 
	C307.088135,115.528976 305.701294,114.125893 305.054474,112.868828 
	C303.835358,113.776733 302.084076,114.428383 301.499664,115.641945 
	C299.922913,118.916245 298.487549,122.344193 297.639038,125.866081 
	C295.786591,133.554840 294.332764,141.339645 292.716095,149.085205 
	C293.149841,149.203186 293.583588,149.321167 294.017334,149.439163 
	C295.279968,147.712555 296.542572,145.985947 298.208344,143.664230 
M244.385101,135.947754 
	C243.726181,139.937012 243.067245,143.926270 242.382431,148.072250 
	C243.205551,148.006393 243.926605,148.158646 244.128433,147.902222 
	C251.247528,138.857651 256.704468,129.114044 256.172302,117.114876 
	C256.108551,115.677414 254.904388,114.290543 254.228806,112.880234 
	C252.933716,113.954201 250.938004,114.783775 250.463562,116.143974 
	C248.283707,122.393394 246.528824,128.791046 244.385101,135.947754 
M433.055481,141.954391 
	C431.924652,143.221497 430.793823,144.488586 428.741058,146.788727 
	C442.971771,146.788727 455.574615,146.917542 468.168518,146.639984 
	C469.915100,146.601501 471.617462,144.556595 473.340271,143.440536 
	C473.118286,142.941559 472.896301,142.442581 472.674316,141.943604 
	C459.767792,141.943604 446.861267,141.943604 433.055481,141.954391 
M496.202728,174.965485 
	C499.556885,172.507919 503.571930,170.579681 506.081787,167.445923 
	C508.662384,164.223877 506.343323,160.248978 502.751007,160.339111 
	C497.488007,160.471176 492.684875,170.097076 496.202728,174.965485 
M350.911102,169.363815 
	C352.432739,166.476959 354.007141,163.044876 350.491577,161.045181 
	C346.543701,158.799606 343.777557,161.984711 342.229462,165.158432 
	C340.798889,168.091156 340.353333,171.504364 339.473969,174.705963 
	C339.976654,175.067505 340.479340,175.429031 340.982025,175.790558 
	C344.138031,173.834229 347.294037,171.877899 350.911102,169.363815 
M404.434326,173.412598 
	C404.895660,173.951340 405.699524,175.002060 405.769226,174.955414 
	C409.371155,172.545639 413.217316,170.355255 416.270874,167.359985 
	C417.192383,166.456070 415.895905,163.290970 415.615448,161.161652 
	C413.489319,161.446289 410.293396,160.970505 409.445374,162.163589 
	C407.240082,165.266190 406.065887,169.101669 404.434326,173.412598 
M457.641602,152.798218 
	C455.049744,152.798218 452.457855,152.798218 449.960968,152.798218 
	C448.514343,158.552795 447.229340,163.664429 445.886078,169.007690 
	C447.001343,168.926804 447.478943,169.030579 447.611298,168.862488 
	C451.579010,163.823578 455.513580,158.758591 459.407288,153.662491 
	C459.420380,153.645340 458.763824,153.116531 457.641602,152.798218 
M388.699524,92.794624 
	C387.313843,95.235008 385.928131,97.675385 384.178436,100.756866 
	C388.696320,100.756866 391.718719,100.756866 394.741119,100.756866 
	C395.110565,100.353043 395.480011,99.949211 395.849457,99.545387 
	C393.729919,97.245033 391.610382,94.944687 388.699524,92.794624 
z"/>
<path class="logo" opacity="1.000000" stroke="none" 
	d="
M472.675385,98.439529 
	C475.639069,99.027115 479.892395,97.502167 479.783539,101.641335 
	C479.664276,106.177078 475.218231,105.073822 472.705505,104.475685 
	C461.532684,101.816086 453.989349,106.231476 448.565887,115.701881 
	C447.502960,117.557991 446.127045,119.356873 444.507904,120.722664 
	C443.656677,121.440697 441.527740,121.747276 440.774536,121.179649 
	C439.959137,120.565163 439.872711,118.717583 439.865387,117.405586 
	C439.861542,116.718864 440.659332,115.987366 441.179016,115.343857 
	C461.252960,90.486694 481.336578,65.613327 505.141815,44.139675 
	C511.904572,38.039349 519.514465,32.873508 526.796204,27.358864 
	C527.759094,26.629665 529.081177,26.374849 530.760864,25.685226 
	C531.827271,32.572044 529.842773,38.397091 526.791992,43.322548 
	C520.600159,53.319378 513.759460,62.944477 506.727356,72.380875 
	C501.467560,79.439011 495.617249,86.076721 489.730865,92.633141 
	C488.424988,94.087700 485.892609,95.037537 483.872101,95.136108 
	C478.897827,95.378815 473.890961,94.859871 468.901276,94.931305 
	C467.234070,94.955170 465.579224,95.840446 463.918732,96.331955 
	C464.001190,96.904716 464.083679,97.477478 464.166138,98.050240 
	C466.854034,98.173454 469.541901,98.296661 472.675385,98.439529 
z"/>
<path class="logo" opacity="1.000000" stroke="none" 
	d="
M386.977661,128.626785 
	C392.133331,130.851181 392.289093,134.698853 390.787567,138.771194 
	C389.351135,142.666931 383.395020,144.824936 378.803650,143.480576 
	C374.819458,142.313980 373.273621,139.382645 373.549500,135.520584 
	C373.835449,131.518005 377.775970,128.193298 382.171906,128.046906 
	C383.644745,127.997856 385.130005,128.321121 386.977661,128.626785 
z"/>
<path class="logo" opacity="1.000000" stroke="none" 
	d="
M420.032166,103.951134 
	C424.496216,103.950890 428.490570,104.219353 432.432373,103.879021 
	C436.863831,103.496407 438.961517,105.070923 438.617889,109.987099 
	C430.369690,109.987099 422.101868,110.244072 413.876129,109.770630 
	C412.227783,109.675758 410.739532,106.799644 409.177460,105.205917 
	C409.505859,104.787659 409.834259,104.369392 410.162628,103.951134 
	C413.288208,103.951134 416.413757,103.951134 420.032166,103.951134 
z"/>
<path class="logo" opacity="1.000000" stroke="none" 
	d="
M505.410767,127.927071 
	C501.504913,127.926239 497.998810,128.212936 494.587494,127.769669 
	C493.259247,127.597076 492.144775,125.779396 490.932922,124.711052 
	C492.178162,123.728119 493.341187,122.057556 494.684753,121.896935 
	C498.104584,121.488075 501.636444,121.479530 505.059631,121.870186 
	C506.684174,122.055580 508.162933,123.518539 509.707733,124.402710 
	C508.421265,125.576080 507.134827,126.749458 505.410767,127.927071 
z"/>
<path class="logo" opacity="1.000000" stroke="none" 
	d="
M420.142151,115.833939 
	C422.765900,115.833939 424.945068,116.057892 427.061127,115.787834 
	C431.614594,115.206696 433.400055,117.277115 433.221039,122.010010 
	C428.101562,122.010010 422.959656,122.428719 417.956543,121.778969 
	C416.245209,121.556725 414.881775,118.655205 413.359406,116.977798 
	C413.664124,116.596512 413.968811,116.215225 414.273529,115.833939 
	C416.072021,115.833939 417.870483,115.833939 420.142151,115.833939 
z"/>
</svg>